<?xml version="1.0" encoding="UTF-8"?>
<svg id="Layer_1" data-name="Layer 1" xmlns="http://www.w3.org/2000/svg" viewBox="0 0 1517 1451">
  <path d="M44.44,1312.43c3.24-26.77,6.04-53.6,9.83-80.29,4.81-33.94,9.5-67.94,15.92-101.59,6.76-35.44,15.79-70.45,23.32-105.76,20.93-98.15,56.79-191.15,96.4-282.95,29.89-69.26,65.16-135.51,106.7-198.48,25.02-37.93,48.66-76.8,74.42-114.21,19.33-28.07,41.03-54.5,61.72-81.62,18.38-24.09,36.01-48.82,55.47-72,26.32-31.35,52.82-62.72,81.54-91.82,33.78-34.21,69.06-67.1,105.56-98.36,20.71-17.74,44.9-31.51,68.07-46.22,11.48-7.29,24.64-10.84,38.58-10.07,11.14,.62,16.93,7.68,12.48,17.69-9.97,22.39-21.18,44.22-31.8,66.33-6.77,14.1-13.21,28.35-20.06,42.4-17.35,35.58-33.98,71.55-52.5,106.52-25.93,48.95-52.13,97.83-80.43,145.43-27.63,46.47-56.71,92.2-87.58,136.57-33.35,47.93-68.48,94.73-104.77,140.49-31.21,39.37-64.87,76.83-98.04,114.61-10.05,11.44-23.39,19.18-37.7,24.74-5.96,2.31-18.71-.96-22.75-5.79-1.03-1.23-1.15-3.22-1.69-4.86,1.2,.58,2.43,1.11,3.61,1.74,7.86,4.2,15.55,5.43,24.28,1.52,17.46-7.82,30.3-20.91,42.13-35.22,44.02-53.24,89.05-105.71,131.59-160.11,49.45-63.25,93.37-130.45,135.18-199.02,49.88-81.81,93.99-166.67,135.23-253.06,14.12-29.57,27.89-59.32,41.52-89.12,4.06-8.87,7.17-18.18,10.57-27.35,3-8.11-1.54-13.49-10.57-11.35-8.84,2.09-18.2,4.35-25.73,9.08-21.28,13.35-42.54,26.97-62.3,42.42-20.68,16.17-40.59,33.61-59.11,52.22-36.03,36.21-71.63,72.93-105.88,110.82-18.91,20.92-34.56,44.77-52,67.06-20.01,25.57-41.14,50.29-60.36,76.43-20.59,28.01-40.09,56.87-59.06,86.02-25.69,39.47-51.53,78.93-75.24,119.6-20.17,34.59-38.69,70.28-55.6,106.57-18.89,40.53-35.52,82.13-52.47,123.53-28.2,68.87-47.36,140.44-64.25,212.81-15.91,68.18-28.36,136.87-36.75,206.33-2.47,20.47-4.81,41.02-5.8,61.6-.88,18.36,13.29,34.29,31.03,39.24,17.73,4.94,35.19,3.17,52.93,.79,35.89-4.83,66.47-21.48,97.01-39.84,55.3-33.23,99.86-77.86,140.66-126.78,27.08-32.47,53.87-65.22,79.67-98.71,22.29-28.93,44.81-57.71,61.99-90.38,12.59-23.94,27.47-46.74,42.29-69.42,21.93-33.54,44.54-66.65,67.23-99.68,7.23-10.52,15.33-20.5,23.69-30.17,2.99-3.46,7.72-5.65,12.01-7.64,2.07-.96,5.9-1.07,7.26,.22,1.46,1.38,1.94,5.21,1.13,7.32-3.31,8.68-6.72,17.42-11.19,25.53-2.94,5.33-7.81,9.58-11.71,14.41-5.93,7.36-12.24,14.48-17.56,22.26-16.2,23.73-31.19,48.19-48.63,71.17-21.19,27.92-40.02,57.62-59.88,86.55-22.19,32.33-35.92,68.21-43.68,106.39-1.14,5.59,1.67,11.98,2.65,18,4.91-1.33,10.37-1.72,14.61-4.2,6.06-3.55,12.14-7.84,16.62-13.16,32.5-38.56,64.52-77.52,96.91-116.17,5.22-6.23,11.2-11.94,17.51-17.05,2.23-1.81,6.91-2.19,9.65-1.11,1.47,.57,1.86,5.7,1.53,8.63-.53,4.74-2.03,9.37-3.16,14.05-2.24,9.31-4.64,18.58-6.67,27.94-.48,2.24,.25,4.74,.43,7.12,1.82-1.48,4.46-2.58,5.34-4.49,9.42-20.38,18.48-40.93,27.82-61.35,2.14-4.67,4.57-9.31,7.61-13.42,1.54-2.08,4.61-3.9,7.17-4.18,5.97-.67,9.68-3.27,12.05-8.83,12.68-29.82,25.57-59.56,38.35-89.33,1.05-2.44,1.69-5.07,2.83-7.46,7.12-15.05,15.65-29.59,21.22-45.19,10.27-28.77,17.78-58.54,28.36-87.19,13.12-35.51,27.44-70.62,42.61-105.31,20.19-46.17,41.67-91.77,62.66-137.59,4.57-9.98,9.35-19.88,14.17-29.74,.93-1.9,2.21-4.29,3.93-4.97,2.8-1.12,6.52-2.09,9.01-1.07,1.67,.69,3.21,5.38,2.5,7.5-2.27,6.73-5.42,13.19-8.6,19.57-13.92,28.01-29.27,55.39-41.68,84.04-20.29,46.84-39.51,94.19-57.67,141.91-18.21,47.86-35.67,96.07-51.39,144.79-13.16,40.81-23.8,82.46-34.72,123.96-13.16,50.04-26.63,99.89-43.81,148.8-9.67,27.52-14.7,56.64-22.35,84.89-6.25,23.11-13.43,45.97-19.82,69.04-1.29,4.67-1.02,9.8-1.22,14.73-.37,9.13-.11,18.32-1.11,27.37-.29,2.66-3.95,6.94-6.03,6.92-2.73-.02-7.43-3.29-7.77-5.66-1.01-7.1-1.68-14.78-.04-21.64,6.01-25.05,12.72-49.95,19.72-74.75,12.37-43.84,25.43-87.49,37.68-131.36,14.14-50.62,27.7-101.41,41.58-152.11,3.21-11.71,6.84-23.3,9.94-35.04,.48-1.81-.85-4.09-1.34-6.16-1.98,1.25-5.11,2.07-5.76,3.81-14.51,38.8-30.17,77.2-39.68,117.73-2.01,8.54-6.87,16.49-10.92,24.46-2.4,4.72-6.6,4.38-10.72,1.92-4.39-2.62-2.88-5.67-1.22-9.37,1.75-3.87,2.6-8.19,3.36-12.4,.1-.55-3.6-2.63-4.03-2.26-1.51,1.31-2.64,3.27-3.44,5.18-11.01,26.51-21.75,53.13-33.12,79.48-1.58,3.67-5.68,7.3-9.46,8.76-8.17,3.16-14.31-3.11-12.05-11.52,6.66-24.74,13.44-49.44,19.97-74.21,.57-2.18-.36-4.75-.59-7.14-1.88,1.26-4.2,2.15-5.59,3.82-25.31,30.49-50.38,61.16-75.78,91.57-9.07,10.86-18.32,21.66-28.45,31.51-9.9,9.63-22.47,13.34-36.34,11.02-6.37-1.06-8.98-4.94-7.56-11.54,3.8-17.74,7.48-35.5,11-53.29,.4-2.05-.52-4.35-.83-6.54-2.12,1-4.93,1.44-6.26,3.08-27.58,34.01-54.56,68.52-82.55,102.19-31.67,38.1-64.98,74.85-105.34,104.02-28.55,20.63-57.71,40.67-90.44,54.56-23.89,10.14-49.21,13.66-74.75,16.66-16.21,1.9-31.95,2.3-46.79-5.46-15.32-8.02-23.14-20.98-24.12-38.17-.25-4.32-.54-8.65-.81-12.97-.26-.04-.52-.08-.78-.12Z"/>
  <path d="M1017.21,829.96c3.1,33.41-8.92,64.42-15.56,96.23-9.05,43.37-23.6,84.97-43.7,124.43-12.83,25.19-26.97,49.71-40.76,74.4-4.18,7.5-3.97,11.51,3.17,17.84,11.4,10.11,19.09,22.54,23.67,36.95,.94,2.97,.91,6.26,1.86,9.22,.72,2.24,2.32,5.94,3.51,5.94,2.54,0,5.98-1.35,7.41-3.34,2.04-2.84,2.23-6.93,3.87-10.16,6.17-12.16,12.4-24.29,19.02-36.2,3.22-5.81,8.96-7.09,15.2-6,6.03,1.05,7.75,5.91,7.67,10.8-.18,11.61-.79,23.24-1.93,34.8-.57,5.75,3.07,6.31,5.69,4.39,3.91-2.85,7.51-6.99,9.54-11.37,5.56-11.98,9.89-24.54,15.48-36.51,1.77-3.8,5.5-7.22,9.18-9.39,2.49-1.47,7.01-1.51,9.57-.17,1.92,1.01,3.2,5.29,3,7.99-1.37,18.93-3.25,37.83-4.79,56.75-.14,1.67,.85,4.79,1.66,4.92,2,.3,5.03-.07,6.15-1.42,2.05-2.46,3.38-5.7,4.4-8.82,7.45-22.88,17.44-44.56,29.93-65.13,8.92-14.69,26.49-15.38,35.81-1.21,8.46,12.86,17.97,13.62,26.39,.95,7.43-11.18,13.28-23.41,19.85-35.17,10.14-18.13,20.68-36.06,30.14-54.54,2.2-4.3,2.79-11.63,.59-15.61-9.96-18.03-10.12-37.22-7.8-56.48,5.01-41.52,12.51-82.6,27.28-121.94,3.08-8.19,7.75-15.8,11.85-23.6,8.02-15.27,16.06-30.54,24.32-45.69,1.71-3.14,3.93-6.42,6.77-8.4,2.19-1.53,6-2,8.54-1.2,1.21,.38,1.96,4.95,1.53,7.38-2.03,11.46-5.27,22.74-6.7,34.25-1.62,13.02-.89,26.35-2.76,39.31-3.3,22.85-7.95,45.5-11.78,68.27-6.21,36.93-21.27,70.96-34.42,105.61-3.41,9-2.44,12.81,4.64,19.33,21.04,19.38,47.28,26.26,74.27,31.73,31.73,6.43,63.57,5.31,95.55,2.6,13.95-1.18,27.56,.85,40.23,7.49,9.75,5.11,13.94,18.87,7.88,27.75-25.29,37.11-50.73,74.13-76.12,111.18-6.95,10.14-13.89,20.29-20.92,30.38-.89,1.28-2.28,2.22-3.43,3.32,.55-1.56,.85-3.28,1.7-4.66,24.21-39.4,48.7-78.64,72.56-118.26,5.09-8.45,8.31-18.11,11.72-27.45,3.11-8.53-1.32-16.66-10.36-17.24-13.06-.83-26.27-.46-39.34,.42-42.34,2.84-83.55-2.19-122.84-18.36-12.78-5.26-24.33-13.65-36.14-21.1-5.19-3.27-9.04-3.31-11.93,2.22-7.09,13.54-13.97,27.18-20.91,40.8-10.03,19.68-19.5,39.67-30.25,58.95-5.98,10.72-16.44,12.44-26.57,5.33-5.48-3.84-10.1-9.09-14.49-14.24-4.5-5.28-11.03-6.16-14.45-.3-7.85,13.49-15.64,27.1-22.17,41.26-7.09,15.38-12.55,31.51-19.07,47.16-4.15,9.96-14.74,14.19-22.27,8.46-3.14-2.39-6.1-7.77-5.76-11.48,1.26-13.72,4.1-27.28,5.89-40.97,.28-2.12-1.84-4.55-2.85-6.84-2.05,1.13-5.02,1.75-5.99,3.48-5.68,10.16-10.77,20.65-16.31,30.89-1.89,3.49-3.87,7.48-6.95,9.62-3.82,2.66-9.36,5.7-13.12,4.7-3.21-.86-6.69-7.09-6.97-11.15-.51-7.67,1.28-15.49,1.95-23.26,.43-4.96,.73-9.95,.75-14.93,0-1.35-.98-3.67-1.85-3.84-1.52-.31-3.92,.18-4.85,1.27-2.01,2.36-3.72,5.16-4.86,8.05-4.2,10.68-8.01,21.51-12.21,32.18-1.39,3.52-3.25,6.92-5.34,10.08-3.03,4.6-6.82,8.61-13.09,7.04-6.6-1.66-9.68-6.66-10.79-13.01-1.31-7.54-2.59-15.09-3.71-22.66-2.35-15.97-11.27-28.2-22.21-39.29-4.37-4.43-8.2-2.41-11.4,1.5-7.48,9.15-14.78,18.45-22.18,27.67-7.97,9.95-15.41,10.94-25.81,3.48-6.93-4.98-9.53-3.89-10.42,4.58-.56,5.28-.15,10.77-1.47,15.82-.64,2.47-4.36,5.93-6.47,5.78-2.9-.19-7.53-3-8-5.36-1.09-5.51-1.49-11.86,.21-17.1,13.79-42.59,20.7-86.7,29.6-130.37,4.63-22.75,8.2-45.65,4.8-68.9-.68-4.63-4.16-8.79-5.47-13.41-.8-2.82-1.09-7.58,.48-8.83,2.11-1.68,7.28-2.25,9.34-.77,7.12,5.08,7.43,13.45,8.68,21.44,4.42,28.29-3.58,55.21-8.38,82.51-2.94,16.72-5.66,33.47-8.49,50.21-.77,4.54-.42,7.3,5.52,5.13,13.05-4.78,26.25-7.17,39.99-2.19,5.63,2.04,8.04-2.79,10.16-6.72,7.65-14.21,15.12-28.51,22.64-42.79,17.02-32.29,32.4-65.35,42.93-100.34,7.43-24.67,12.93-49.92,19.96-74.72,9.67-34.08,10.33-68.66,6.64-103.49-1.81-17.11-8.77-32.15-22.46-43.19-17.46-14.09-36.49-13.23-56-4.87-39.3,16.85-70.04,43.58-92.47,80-12.73,20.67-27.12,40.44-38.43,61.85-21.22,40.16-40.31,81.41-53.99,124.89-7.48,23.77-8.37,47.72-.49,71.73,.86,2.61-.13,5.83-.27,8.77-2.97-1.56-6.87-2.39-8.75-4.8-9.55-12.24-8.75-26.48-7.71-41.04,2.42-34.09,15.97-64.57,28.69-95.56,17.72-43.14,40.57-83.52,64.84-123.06,19.83-32.31,44.78-60.72,77.34-80.94,13.72-8.52,28.78-15.75,44.17-20.5,23.17-7.16,42.44,2.9,58.27,19.53,18.72,19.67,23.25,44.24,22.49,70.33-.09,3-.01,6-.01,8.99Zm189.78,142.39c0,8-.14,13.83,.05,19.66,.15,4.46,.9,9.02,6.34,9.98,5.73,1.01,4.77-4.19,6.09-7.24,13.74-31.87,24.47-64.81,30.54-98.9,5.64-31.66,8.79-63.76,12.94-95.67,.14-1.05-.91-2.26-1.4-3.4-1.09,.59-2.61,.91-3.19,1.82-4.19,6.54-8.62,12.99-12.17,19.88-12.23,23.77-20.94,48.78-26.57,74.98-5.76,26.8-14.33,53.11-12.62,78.89Zm-352.12,195.05c.8,1.22,2.04,5.28,4.54,6.33,2.8,1.18,7.11,.43,10.09-.95,2.61-1.21,4.41-4.35,6.35-6.81,3.68-4.66,7.5-9.25,10.65-14.26,1.58-2.51,3.39-6.85,2.29-8.59-1.44-2.27-5.69-3.92-8.67-3.83-10.29,.32-24.66,15.59-25.25,28.12Z"/>
</svg>