<?xml version="1.0" encoding="UTF-8"?>
<svg id="Layer_1" data-name="Layer 1" xmlns="http://www.w3.org/2000/svg" viewBox="0 0 706.56 816">
  <defs>
    <style>
      .cls-1 {
        fill: #a7a7a7;
      }

      .cls-2 {
        fill: #fff;
      }

      .cls-3 {
        fill: #e2e2e2;
      }

      .cls-4 {
        fill: #a9a9a9;
      }

      .cls-5 {
        fill: #a4a4a4;
      }
    </style>
  </defs>
  <path class="cls-1" d="M0,612.48V204c.63-1.52,1.88-2.41,3.24-3.19,15.86-9.14,31.7-18.31,47.55-27.47,19.93-11.52,39.86-23.04,59.79-34.56,21.32-12.32,42.63-24.64,63.95-36.95,21.04-12.15,42.07-24.32,63.12-36.47,21.46-12.39,42.91-24.79,64.37-37.18,14.82-8.55,29.63-17.1,44.42-25.7,2.1-1.22,4.38-1.76,6.61-2.49h.96c5,1.1,9.11,4.07,13.42,6.57,28.14,16.32,56.33,32.55,84.49,48.83,28.57,16.52,57.17,33.01,85.74,49.53,24.01,13.87,48.01,27.78,72.02,41.64,29.69,17.14,59.34,34.37,89.08,51.42,1.8,1.03,3.55,2.17,5.37,3.16,1.52,.83,2.29,2.07,2.19,3.82v406.46c.04,1.78-.83,2.91-2.37,3.8-21.67,12.48-43.32,24.99-64.97,37.51-19.92,11.52-39.84,23.03-59.76,34.54-21.37,12.35-42.76,24.69-64.13,37.05-19.85,11.48-39.7,22.95-59.55,34.42-22.48,12.99-44.96,25.98-67.45,38.96-8.44,4.87-16.91,9.7-25.29,14.67-2.64,1.57-5.4,2.74-8.31,3.61h-1.92c-6.98-1.69-12.6-6.08-18.65-9.54-22.33-12.78-44.6-25.68-66.87-38.58-20.96-12.13-41.92-24.25-62.89-36.36-21.24-12.27-42.49-24.54-63.73-36.81-19.93-11.52-39.85-23.04-59.78-34.55-21.45-12.39-42.89-24.82-64.36-37.17-4.36-2.51-8.7-5.08-13.09-7.53-1.32-.73-2.4-1.69-3.19-2.97Z"/>
  <path class="cls-2" d="M353.04,0c-5.45,3.5-11.14,6.58-16.74,9.83-22.12,12.82-44.27,25.61-66.41,38.4-17.99,10.39-35.99,20.77-53.98,31.16-20.2,11.67-40.4,23.36-60.6,35.04-17.92,10.35-35.85,20.69-53.76,31.05-20.34,11.75-40.67,23.52-61.01,35.28-12.73,7.36-25.46,14.71-38.2,22.05-.76,.44-1.56,.8-2.35,1.2C0,136,0,68,0,0H353.04Z"/>
  <path class="cls-2" d="M706.13,203.97c-4.64-3.14-9.6-5.74-14.44-8.54-22.2-12.86-44.43-25.68-66.65-38.52-20.63-11.91-41.26-23.83-61.89-35.75-21.87-12.64-43.74-25.29-65.61-37.93-23.53-13.6-47.07-27.19-70.61-40.79-23.6-13.64-47.2-27.29-70.8-40.94-.76-.44-1.54-.86-2.14-1.52h352.56V204c-.17,.36-.31,.35-.43-.03Z"/>
  <path class="cls-2" d="M0,612.48c.9,.11,1.66,.55,2.42,1,23.11,13.36,46.21,26.74,69.33,40.09,18.27,10.56,36.56,21.09,54.83,31.64,21.94,12.67,43.87,25.36,65.8,38.04,23.18,13.4,46.37,26.78,69.55,40.18,29.55,17.08,59.09,34.16,88.63,51.25,.69,.4,1.33,.88,1.99,1.32H0v-203.52Z"/>
  <path class="cls-2" d="M354.48,816c1.07-1.26,2.6-1.83,3.97-2.62,31.75-18.36,63.52-36.68,95.27-55.03,26.15-15.11,52.29-30.24,78.44-45.35,35-20.24,70-40.47,105.01-60.7,22.35-12.91,44.7-25.8,67.05-38.7,.62-.36,1.23-.75,1.84-1.13,.18-.34,.34-.34,.5,.01v203.52H354.48Z"/>
  <path class="cls-3" d="M706.56,612.48c-.17,0-.33,0-.5-.01,0-1.52,.02-3.04,.02-4.56,0-133.29,0-266.57,0-399.86,0-1.36,.03-2.72,.05-4.08,.14,0,.29,.01,.43,.03v408.48Z"/>
  <path d="M292.11,645.37c-2.15-.95-4.5-.75-6.76-1.1-2.36-.36-2.4-.27-2.41-2.56-.02-5.76-.02-11.52,0-17.28,0-2.11,.13-2.23,2.24-2.63,1.18-.22,2.37-.36,3.54-.63,3.04-.7,3.85-1.64,3.93-4.8,.07-2.96,0-5.92-.04-8.88-.06-5.92-.14-11.84-.22-17.75-.02-1.12-.19-2.24-.16-3.35,.08-2.93,1.26-4.18,4.19-4.52,.48-.05,.96-.04,1.44-.07,6.46-.28,12.91-.73,19.35-1.38,2.74-.28,4.75-1.72,6.79-3.27,.51-.39,.63-.87,.41-1.48-.24-.65-.54-1.15-1.34-1.11-1.12,.06-2.24,.06-3.35,.13-7.33,.46-14.66,.93-22,1.4-5.26,.33-10.52,.67-15.78,.97-1.93,.11-1.97,.05-2-1.95-.05-3.27-.34-6.55,.07-9.82,.03-.24,.03-.48,.03-.72,.01-3.26-1.15-4.7-4.39-5.21-2.68-.43-5.38-.71-8.07-1.1-5.06-.74-10.11-1.48-15.16-2.28-3.17-.5-4.03-1.61-4-4.85,.03-2.48,.09-4.96,.06-7.44-.04-3.32,.71-3.46-3.56-3.45-2.88,0-5.76,0-8.63,0-3.67,0-2.99-.28-2.62-3.07,1.23-9.11,2.56-18.2,3.85-27.3,.04-.3,.03-.66,.46-.73,.06,.03,.19,.06,.18,.09-.03,2.68,1.73,3.17,3.9,3.32,1.91,.13,3.8,.48,5.71,.65,1.62,.14,1.63,.09,1.69-1.43,0-.24,0-.48-.02-.72-.07-1.02,.4-1.24,1.32-.97,2.25,.65,4.12,3.03,4.31,5.8,.09,1.23,.33,2.35,.92,3.43,.34,.62,.73,.76,1.35,.43,1.33-.71,2.23-1.67,2.64-3.21,1.06-4.03,1.08-8.07,.35-12.13-.35-1.97-.78-3.92-1.29-5.85-.46-1.73-1.13-2.27-2.89-2.28-7.03-.02-14.06-.4-21.09-.02-1.74,.1-1.87,.14-1.93,1.99-.19,5.99-.65,11.98-.55,17.98,.03,1.61-.16,3.2-.38,4.78-.29,2.03-1.13,2.71-3.22,2.77-4.52,.13-4.91-.22-4.87-4.67,.05-4.96-.18-9.92,.14-14.87,.05-.71-.05-1.44-.18-2.15-.31-1.73-1.08-2.5-2.85-2.72-1.03-.12-2.07-.05-3.11-.07-4.55-.08-9.12,.31-13.64-.5-1.65-.29-3.31-.6-4.9-1.11-5.18-1.65-10.46-2.11-15.86-1.81-4.04,.23-4.08,.17-4.53-3.84-.18-1.59-.16-3.19-.26-4.79-.21-3.37-.8-4.02-4.22-4.11-3.6-.09-7.19-.03-10.79-.04-2,0-4,.03-6-.03-1.74-.05-1.89-.2-1.91-1.99-.04-3.36,0-6.72-.03-10.08-.02-1.92-.04-1.98-1.93-2.2-1.9-.22-3.82-.27-5.73-.43-2.44-.2-2.53-.29-2.55-2.71-.02-3.04,.01-6.08-.01-9.12-.02-2.34-.05-2.37-2.47-2.38-3.04-.02-6.08,.02-9.11-.02-2.09-.02-2.14-.07-2.16-2.18-.03-3.84,0-7.68-.01-11.52,0-3.34,.08-3.07-3.19-3.08-3.76-.01-7.51,.02-11.27-.02-1.69-.02-1.8-.12-1.82-1.78-.08-7.6-.53-15.2,.01-22.79,.37-5.26,1.01-10.5,1.34-15.76,.85-13.67,.57-27.34,.35-41.01-.05-3.28-.36-6.55-.42-9.82-.06-2.97,.51-3.53,3.43-3.64,2.79-.11,5.59-.18,8.39-.2,2.12-.01,2.28,.13,2.51,2.26,.15,1.35,.13,2.71,.21,4.07,.09,1.68,.14,1.79,1.84,1.68,4.06-.26,8.12-.59,12.18-.91,3.66-.29,7.32-.58,10.98-.89,1.94-.16,2.01-.18,2.02-2.14,.03-6.4,0-12.8,.02-19.2,0-4.24-.19-3.73,3.74-3.77,2.72-.02,5.44,.01,8.15-.01,2.24-.02,2.28-.05,2.29-2.3,.02-8.64,0-17.28,.01-25.92,0-.64,.02-1.28,0-1.92-.02-.95,.35-1.48,1.37-1.55,1.03-.07,2.06-.27,3.09-.39,.86-.1,1.28-.55,1.27-1.42,0-.64,.02-1.28,.02-1.92,0-6.32,0-12.64,0-18.96,0-2.72,.02-2.73,2.82-2.74,3.12-.01,6.24,.02,9.35-.02,1.91-.02,2.02-.12,2.04-2.07,.04-3.28-.03-6.56,.03-9.83,.05-3.04,1.79-4.67,4.85-4.75,.99-.03,1.52,.29,1.51,1.33,0,.64,.02,1.28,.02,1.92,0,6.64,0,13.28,0,19.92,0,.64,.03,1.28,.02,1.92-.01,.89,.42,1.29,1.3,1.33,2.23,.11,4.46,.27,6.7,.41,2.58,.17,2.56,.2,2.25,2.65-1.17,9.12-1.97,18.27-2.11,27.48-.01,.72-.02,1.45-.14,2.15-.43,2.5-1.9,3.77-4.46,3.78-1.84,0-3.67-.13-5.51-.13-3.69,0-4.74,1.01-4.75,4.68-.02,7.04,0,14.08-.01,21.12,0,3.8,.28,3.45-3.52,3.47-2.32,.02-4.64,.05-6.95,0-1.25-.02-1.69,.52-1.67,1.72,.03,3.2,0,6.4,0,9.6,0,.64,.03,1.29-.04,1.92-.22,1.92-1.14,2.83-3.09,3.04-.63,.07-1.28,.07-1.92,.03-2.47-.14-4.83,.36-6.92,1.59-3.81,2.26-7.98,2.69-12.24,2.73-4.14,.04-3.51,.28-3.53,3.57-.03,4.24,0,8.48-.02,12.72-.01,1.97-.05,2-1.97,2.12-4.38,.29-8.77,.54-13.15,.81-.4,.02-.8,.05-1.19,.1-.72,.09-1.01,.49-.68,1.16,.64,1.28,1.09,2.68,2.35,3.56,3.81,2.65,5.27,6.52,5.46,10.95,.29,6.87,.36,13.75,.1,20.62-.03,.88-.09,1.76,0,2.63,.25,2.56,1.47,3.76,4.03,3.81,2.39,.05,4.79-.11,7.19-.12,3.96-.01,4.01,0,4.34,3.81,.21,2.39,.23,4.79,.36,7.18,.1,1.82,.16,1.92,1.94,1.94,2.96,.04,5.92,0,8.87,.03,.77,0,1.59-.19,2.45,.45-.69,1.36-2.4,1.09-3.48,2.26,2.21,.85,4.41,.94,6.54,1.07,4.93,.3,5.58,.91,5.58,5.89,0,4.08-.02,8.16,.01,12.24,.02,1.94,.06,1.96,2.05,2.07,6.38,.36,12.76,.73,19.14,1.03,1.11,.05,1.96,.29,2.66,1.24,1.59,2.14,3.81,3.07,6.46,3.01,1.36-.03,2.71,0,4.06-.22,1.02-.16,2.07-.11,3.11-.1,3.57,.07,3.75,.26,3.75,3.83,0,2.4-.01,4.8,0,7.2,.02,3.16,.83,4.01,3.9,4.16,4.47,.22,8.94,.42,13.4,.65,1.99,.1,3.98,.32,5.97,.41,1.62,.07,1.78-.09,1.8-1.74,.04-4.08,0-8.16,.03-12.24,.01-1.21-.4-1.73-1.68-1.67-4.57,.22-8.28-1.77-11.26-4.98-4.85-5.23-10.18-9.91-15.65-14.47-4.15-3.46-6.38-7.86-6.27-13.41,.12-5.56-1.29-10.77-4.21-15.53-2.45-3.99-5.8-6.58-10.7-6.6-1.2,0-1.79-.44-1.72-1.68,.03-.56,0-1.12,0-1.68,0-8.48,0-16.96,0-25.44,0-.72,.02-1.44,.03-2.16,.01-.78,.4-1.2,1.19-1.15,3.19,.19,6.38,.4,9.56,.6,.78,.05,1.15,.47,1.17,1.23,.02,.64,.03,1.28,.03,1.92,0,7.12,0,14.24,0,21.36,0,.56-.01,1.12,0,1.68,.07,1.82,.12,1.89,1.87,2.08,3.34,.35,6.68,.65,10.01,.97,.32,.03,.64,.02,.96,.05,1.92,.23,2.17,.38,2.37,2.31,.32,3.18,.53,6.37,.76,9.56,.15,1.99,.22,3.99,.39,5.98,.26,3.06,1.61,4.29,4.69,4.14,3.2-.16,6.38,.15,9.58-.05,3.08-.19,4.34,1.14,4.41,4.3,.04,1.52,.02,3.05-.12,4.55-.34,3.52,.07,7.03,.13,10.55,.04,2.19,1.34,3.43,3.38,4.13,6.8,2.34,13.58,4.75,20.36,7.13,.45,.16,.9,.35,1.36,.46,1.02,.25,1.34,.9,1.41,1.92,.21,3.19,.5,6.37,.78,9.56,.16,1.77,.18,1.82,2.02,1.85,3.36,.04,6.72,.04,10.07,0,1.76-.02,2.09-.33,2.12-2.14,.04-2.4-.13-4.79-.14-7.19-.07-10.88-.1-21.76-.18-32.64-.02-2.64-.22-5.27-.31-7.91-.03-.83-.22-1.59-.71-2.25-1.09-1.46-2.12-3-3.82-3.84-.52-.26-.7-.59-.72-1.09-.02-.56-.03-1.12-.03-1.68,0-7.44,0-14.88,0-22.32,0-2.01-.08-4.05,1.93-5.35,2.1-1.35,4.39-1.27,6.72-.88,.87,.14,.9,.78,.92,1.43,.07,2.07,.41,4.14,.04,6.22-.11,.63-.14,1.27-.16,1.91-.09,3.14,1.21,4.74,4.31,5.35,.08,.02,.16,.03,.24,.04,4.65,.39,3.83,.72,3.85,4.5,.05,10,.02,20,0,30,0,.8-.07,1.59-.15,2.39-.04,.34-.3,.55-.66,.57-.47,.03-.77-.21-.82-.67-.15-1.59-.32-3.18-.4-4.78-.24-4.55-.42-9.1-.66-13.65-.09-1.81-.21-1.89-2.01-1.58-1.18,.2-2.35,.47-3.53,.67-.96,.17-1.37,.72-1.34,1.66,.01,.48-.02,.96-.02,1.44,0,8.96,0,17.92,0,26.88,0,.16,0,.32,0,.48,.05,2.55,.05,2.57,2.52,2.58,3.6,.02,7.19,0,10.79,.01,2.34,.01,2.37,.04,2.37,2.45,.02,7.04,0,14.08,0,21.12,0,3.6,0,7.2,0,10.8,0,2.63,.02,2.64,2.66,2.65,3.84,.01,7.67,0,11.51,0,2.59,0,2.6,.03,2.61,2.7,0,9.2,0,18.4,0,27.6,0,.64-.02,1.28,.01,1.92,.08,1.67,.16,1.82,1.78,1.83,4.64,.04,9.27,.04,13.91,0,1.77-.01,1.86-.12,1.88-1.97,.11-7.04,.15-14.08-.02-21.11,0-.24-.04-.48-.05-.72-.03-3.21,.85-4.2,4.04-4.3,5.03-.16,10.07-.22,15.1-.38,3.62-.11,7.18,0,10.57,1.52,1.35,.6,2.78,.61,4.2,.02,3.53-1.46,7.24-1.91,11.03-1.91,2.64,0,5.28,.04,7.91-.02,2.8-.06,3.5-.8,3.51-3.64,.02-6.72,0-13.44,0-20.16,0-.64,.04-1.28,0-1.92-.07-1.24,.55-1.67,1.73-1.71,2.15-.08,4.31-.23,6.45-.41,1.75-.15,1.85-.23,1.87-2.05,.03-4.4,0-8.8,.02-13.2,0-2.54,.03-2.56,2.5-2.57,4.08-.02,8.15,.01,12.23-.02,1.96-.02,2.02-.08,2.04-2.06,.03-3.76,.01-7.52,.01-11.28,0-15.2,0-30.4,0-45.6,0-.72-.02-1.44,.01-2.16,.08-1.65,.19-1.84,1.79-1.87,3.12-.06,6.24-.06,9.35,0,1.59,.03,1.78,.21,1.77,1.86-.04,12.15,.81,24.3,.09,36.46-.25,4.31-.1,8.64-1.08,12.88-.47,2.02-.97,4.05-1.6,6.02-1.38,4.34-2.86,8.65-4.28,12.99-1.07,3.27-3.18,5.4-6.68,5.67-2.64,.2-3.99,1.91-4.17,4.38-.27,3.68,.04,7.36,.02,11.03,0,1.27,.73,2.06,1.89,2.5,1.44,.53,2.95,.79,4.45,.88,2.24,.14,4.21,.84,5.97,2.21,.25,.2,.52,.38,.8,.53,1.21,.67,1.56,.53,1.67-.82,.17-2.15,.26-4.31,.39-6.46,.29-4.79-.26-4.04,4.24-4.1,3.68-.05,7.35,0,11.03-.02,2.42-.01,2.45-.04,2.47-2.38,.02-2.56-.02-5.12,.02-7.68,.03-1.9,.06-1.93,1.99-2.28,1.88-.35,3.77-.73,5.67-.97,1.33-.16,1.94-.79,2.15-2.1,.24-1.5,.72-2.95,1.02-4.44,.23-1.12,.81-1.63,1.98-1.59,1.6,.06,3.2,0,4.8,0,5.01,0,5.56-.54,5.55-5.44,0-4.16-.01-8.32,0-12.48,.01-2.36,.04-2.38,2.43-2.4,3.76-.02,7.51,0,11.27-.01,3.82-.01,3.55,.3,3.55-3.45,.01-7.84,0-15.68,0-23.52,0-1.2,.13-2.39,.26-3.58,.29-2.61,1.7-4.23,4.07-5.14,.67-.26,1.35-.52,2.04-.69,2.68-.66,5.19-1.61,7.04-3.8,.14-.16,.38-.33,.78-.02,.32,.35,.1,.93,.04,1.45-1.18,10.6-.72,21.25-.8,31.88-.02,3.12,0,6.24-.08,9.36-.05,1.81-.12,1.86-1.88,2.04-2.06,.21-4.14,.3-6.21,.44-.56,.04-1.12,.01-1.68,.08-1.97,.23-2.12,.37-2.14,2.37-.03,3.84,0,7.68-.01,11.52,0,.64-.04,1.28,0,1.92,.06,1.2-.44,1.74-1.69,1.72-2.32-.04-4.64-.03-6.95,0-2.02,.03-2.07,.07-1.91,2.03,.14,1.67,.36,3.34,.7,4.98,.34,1.65,1.37,2.56,3.16,2.74,9.06,.93,18.14,1.59,27.25,1.61,.85,0,1.76,.24,2.6-.43-.52-1.03-1.55-1.31-2.46-1.72-2.87-1.28-5.96-1.79-9.02-2.37-2.59-.49-5.17-1.06-7.61-2.1-.86-.37-1.8-.65-2.4-1.44,.27-.71,.88-.67,1.39-.82,5.09-1.41,10.26-2.41,15.53-2.84,.71-.06,1.41-.25,2.12-.39,2.01-.39,2.98-1.71,3.21-3.67,.23-1.91,.38-3.81,.4-5.74,.02-2.62,.15-2.71,2.7-2.72,3.76-.02,7.51,.02,11.27-.02,1.8-.02,1.87-.11,1.91-1.94,.04-2.4,0-4.8,.02-7.2,.02-2.24,.15-2.41,2.31-2.88,1.83-.41,3.52-1.05,4.8-2.51,1.46-1.67,1.86-3.69,1.9-5.8,.05-2.72,.01-5.44,.02-8.16,0-.64-.02-1.28,.05-1.92,.17-1.55,.37-1.77,1.94-1.81,2.24-.05,4.48,0,6.71-.03,2.21-.03,2.29-.1,2.31-2.3,.03-2.4,0-4.8,.01-7.2,.02-2.46,.03-2.48,2.58-2.48,4.56-.01,9.11,0,13.67,0,.72,0,1.45,.02,2.15-.1,1.28-.23,2.12-.96,2.42-2.32,.29-1.36,.19-2.71,.13-4.06-.25-5.68-.26-11.35,0-17.02,.17-3.75,.15-3.65-3.62-3.88-3.28-.2-6.55,0-9.82,.02-3.63,.02-4.7-1.12-4.55-4.81,.18-4.48-.11-8.95,.17-13.43,.21-3.38-1.35-4.75-4.82-4.77-1.92-.01-3.82,.2-5.73,.42-2.49,.29-2.64,.13-2.65-2.3,0-2.08,.05-4.16,.07-6.24,.02-3.11-.7-3.87-3.76-3.89-2.32-.02-4.64,.03-6.95-.02-1.75-.04-1.91-.18-1.94-1.95-.06-2.88,0-5.76-.04-8.64-.03-2.28-.08-2.33-2.29-2.24-2.63,.1-5.26,.3-7.9,.36-2.08,.04-2.12-.02-2.13-2.16-.02-6.8,0-13.6-.01-20.4,0-5.7-2.06-7.81-7.76-7.97-.08,0-.16,0-.24,0-3.74-.04-3.43,.41-3.53-3.47-.24-9.12,.08-18.23,.03-27.35-.02-3.45,1-4.43,4.43-4.38q5.79,.09,5.79,5.76c0,5.12,.03,10.24,0,15.36-.02,2.96,.75,5.37,3.87,6.43,1.08,.37,1.48,1.37,1.85,2.37,.74,2.01,.56,4.11,.62,6.18,.08,2.56-.04,5.12-.08,7.68-.04,2.36,.09,2.53,2.38,2.29,4.93-.5,9.85-1.05,14.77-1.59,5-.54,10-1.12,15-1.62,2.26-.23,2.28-.16,2.37,2.06,.19,4.55,.31,9.1,.01,13.66-.05,.8-.04,1.6,0,2.4,.12,2.54,1.03,3.48,3.54,3.47,1.35,0,2.71-.14,4.06-.3,1.83-.23,3.66-.35,5.5-.31,2.68,.06,3.55,.9,3.66,3.62,.07,1.76,.02,3.52,.02,5.28,0,.64-.02,1.28,0,1.92,.07,1.5,.27,1.7,1.69,1.56,2.7-.28,5.4-.59,8.1-.9,3.97-.45,7.93-.91,11.9-1.37,.63-.07,1.26-.22,1.9-.27,.98-.07,1.3-.63,1.43-1.55,.25-1.75,.21-3.51,.27-5.27,.36-9.83,.72-19.65,1.12-29.48,.21-5.19,.5-10.38,.78-15.57,.1-1.93,.13-1.96,2.12-1.98,2.64-.03,5.28-.04,7.91,0,1.8,.03,1.88,.1,1.98,1.92,.24,4.15,.4,8.3,.61,12.46,.25,4.87,.56,9.73,.79,14.6,.05,1.11,.48,1.59,1.59,1.56,1.6-.04,3.2-.03,4.8,0,1,.01,1.46-.46,1.44-1.45-.01-.72,.01-1.44,.02-2.16,0-12.48,0-24.96,0-37.44,0-.64-.02-1.28,0-1.92,.07-1.85,.14-1.92,1.91-1.77,4.46,.38,8.91,.76,13.37,1.17,3.51,.32,4.37,1.31,4.38,4.9,.04,9.76-.05,19.52,.16,29.27,.25,11.44,.05,22.87,.14,34.31,.02,2.91-.01,2.92-2.89,2.93-4.08,0-8.15-.02-12.23,.01-2.08,.02-2.12,.05-2.13,2.19-.03,3.44,0,6.88-.02,10.32-.02,2.25-.08,2.32-2.26,2.35-2.32,.03-4.64-.02-6.95,.03-1.67,.04-1.76,.12-1.79,1.8-.05,2.56,0,5.12-.03,7.68-.03,1.85-.07,1.87-1.86,2.05-1.83,.19-3.65,.37-5.49,.48-1.18,.07-1.72,.58-1.7,1.79,.04,2.24,0,4.48,0,6.72,0,.48,.07,.96,.08,1.44,.1,4.33-1.51,5.75-5.89,5.2-2.31-.29-4.63-.06-6.95-.14-1.23-.04-1.72,.49-1.7,1.7,.04,2.4,0,4.8,0,7.2,0,4,.02,8-.02,12-.02,1.81-.14,1.92-1.91,1.95-2.4,.05-4.8-.01-7.19,.03-1.8,.03-1.88,.09-1.89,1.95-.03,5.92-.01,11.84-.02,17.76,0,.56,0,1.12,0,1.68-.03,2.56-.03,2.58-2.5,2.59-3.52,.02-7.04-.01-10.55,.01-2.24,.02-2.28,.04-2.29,2.28-.01,7.36,0,14.72,.01,22.08,0,.56,.03,1.12,0,1.68-.23,2.89-1.53,4.13-4.47,4.19-3.67,.07-7.34-.45-11.02-.2-1.91,.13-3.83,.19-5.75,.19-1.27,0-1.65,.59-1.64,1.77,.03,3.6,0,7.2,0,10.8,0,.72,.02,1.44,0,2.16-.06,1.99-.08,2.05-2.04,2.06-3.6,.04-7.19,.01-10.79,.01-.64,0-1.28-.02-1.92,.01-1.67,.09-1.9,.26-2.23,1.88-.32,1.56-.54,3.15-.86,4.72-.49,2.34-1.79,3.89-4.29,4.18-.87,.1-1.74,.28-2.61,.29-5.44,.11-10.84,.72-16.25,1.09-3.8,.26-5.28,1.62-5.97,5.29-.56,2.94-1.47,3.75-4.54,3.81-3.92,.08-7.81,.47-11.7,.85-2.23,.22-3.97,.86-4.54,3.42-.45,2-2.21,2.68-4.06,2.74-2.63,.08-5.27,.14-7.91-.1-2.79-.26-5.57-.24-8.37,.06-2.57,.28-4.75,1.28-6.67,2.95-1.08,.95-2.14,1.92-3.28,2.79-2.24,1.72-4.77,2.38-7.63,2.26-4.15-.16-8.31-.14-12.47-.05-4.77,.09-5.44,.84-5.66,5.68-.05,1.04-.07,2.08-.15,3.11-.09,1.08-.54,1.73-1.8,1.77-2.07,.06-4.14,.29-6.21,.46-1.66,.13-1.79,.21-1.82,1.82-.05,2.8-.05,5.6,0,8.4,.03,1.63,.13,1.74,1.84,1.76,4.56,.04,9.11,.02,13.67,.02,2.79,0,5.58,.01,8.37,0,2.23-.02,2.24-.04,2.49-2.18,.18-1.59,.31-3.18,.49-4.77,.22-1.91,.32-2.02,2.21-1.86,3.74,.31,7.47,.7,11.21,1.01,2.09,.17,2.14,.09,2.36-1.97,.27-2.54,.51-5.09,.81-7.63,.22-1.9,.25-1.93,2.2-1.95,4.8-.03,9.59-.01,14.39-.01,3.12,0,6.24,0,9.35,0,2.44-.01,2.45-.02,2.77-2.48,.1-.79,.11-1.6,.19-2.39,.2-1.81,.25-1.89,2-1.96,1.36-.05,2.72-.02,4.08-.02,4.4,0,8.79-.02,13.19,.01,2.36,.02,2.45,.07,2.35,2.45-.28,6.55-.65,13.09-.94,19.64-.05,1.12-.5,1.56-1.61,1.55-3.12-.03-6.24-.02-9.35,.01-2.09,.02-2.13,.06-2.14,2.19-.03,4.16,0,8.32-.02,12.48,0,2.56-.03,2.57-2.5,2.59-2.56,.02-5.12,0-7.67,0-2.67,.01-2.69,.02-2.7,2.61-.01,4.56,0,9.12,0,13.68,0,.48,0,.96,0,1.44-.03,2.55-.03,2.58-2.49,2.58-2.64,0-5.27-.08-7.91-.07-3.2,0-6.39,.05-9.59,.09-1.86,.02-3.67,.35-5.37,1.1-5.86,2.59-12.03,3.08-18.31,2.84-.32-.01-.64-.06-.96-.07-2.04-.04-2.23,.11-2.27,2.1-.04,2.16,.01,4.32-.03,6.48-.04,1.94-.12,2.04-2.06,2.07-3.36,.05-6.72,0-10.07,.03-2.37,.02-2.4,.05-2.4,2.44-.01,13.84,0,27.68,0,41.52,0,2.34,.02,2.38,2.31,2.65,1.9,.23,3.82,.29,5.72,.54,1.73,.23,2,.48,2.01,2.08,.05,7.18-3.21,12.91-11.49,13.98-4.62,.6-9.26,.21-13.89,.32-.8,.02-1.6,.03-2.4,0-1.13-.04-2.05,.11-2.22,1.53-.19,1.6,.3,2.6,1.63,3.07,.77,.27,1.58,.2,2.38,.21,5.27,.05,10.55-.09,15.83,.15,3.7,.17,7.27,.93,10.81,1.99,1.91,.57,2.92,1.83,3.37,3.68,.23,.94,.35,1.88,.33,2.85-.12,6.08-.21,12.15-.34,18.23-.04,1.79-.12,1.87-1.96,1.89-3.28,.04-6.56,.01-9.83,.01-16.23,0-32.46,0-48.68,0-2.97,0-2.97-.01-2.98-3.06,0-1.44,.06-2.88-.03-4.32-.17-2.73-1.57-4.08-4.3-4.09-3.75-.02-7.51-.01-11.26,.14-4,.16-6.45,2.97-6.27,6.94,.03,.73,.43,.98,1.07,1,.8,.03,1.6,.03,2.4,.03,4.48,0,8.95-.02,13.43,.02,1.63,.01,1.88,.34,1.88,1.74,0,1.09-.47,1.63-1.59,1.59-.56-.02-1.12,0-1.68,0-14.31,0-28.62,0-42.93,0-.48,0-.96,.02-1.44-.01-1.52-.1-1.78-.3-1.85-1.87-.14-2.96-.2-5.91-.31-8.87-.03-.88-.1-1.76-.23-2.63-.37-2.53-1.69-4.01-4.21-4.13-3.51-.17-7.03-.05-10.55-.07-1.27,0-1.36,.87-1.37,1.8-.03,4.4-.32,8.79,.03,13.19,.2,2.5,.13,2.57-2.41,2.58-6.95,.01-13.91,.02-20.86,0-2.23,0-2.3-.09-2.32-2.29-.03-2.72-.03-5.44,0-8.16,.02-2.09,.22-2.26,2.38-2.33,2-.07,3.99-.11,5.99-.17,2.37-.07,2.46-.14,2.48-2.45,.03-3.36,0-6.72,0-10.08,0-.72-.03-1.44,.02-2.16,.15-2.55,1.37-3.58,3.92-3.26,3.51,.45,7,.34,10.52-.45Z"/>
  <path d="M90.24,306.74c0,6,.01,12,0,18,0,2.36-.04,2.34-2.31,2.79-1.35,.27-2.7,.27-4.05,.09-1.83-.24-3.66-.38-5.5-.29-1.38,.07-2.67,.46-3.83,1.24-.7,.47-.89,1.11-.65,1.88,.28,.86,.99,.64,1.61,.55,4.74-.68,9.47-1.48,14.25-1.87,2.86-.23,4.65,1.16,4.76,4.02,.12,3.28,.04,6.56,.06,9.84,.04,5.01,.93,6.01,5.96,6.29,2.71,.15,5.43,.04,8.15,.07,2.35,.03,2.42,.07,2.5,2.41,.26,7.76,.11,15.52,.06,23.27-.08,11.44-.06,22.87,1.29,34.26,.24,2.01,.18,2.03-1.76,2.15-1.83,.11-3.67,.24-5.51,.31-2.15,.08-2.2,.04-2.22-2.05-.03-3.76-.01-7.52-.01-11.28,0-1.52-.04-3.04,0-4.56,.03-1.17-.38-1.75-1.64-1.8-2.55-.11-5.1-.34-7.65-.52-.48-.03-.96-.03-1.44-.08-2.07-.21-2.14-.25-2.15-2.29-.03-4.32,0-8.64-.01-12.96,0-.48,0-.96,0-1.44-.03-2.56-.03-2.59-2.51-2.6-3.68-.02-7.35,.02-11.03,.02-3.16,0-3.29-.11-3.07-3.23,.5-7.06-.17-14.05-1.29-21.01-1.53-9.46-3.06-18.92-3.72-28.51-.34-4.86-.95-9.7-1.38-14.55-.19-2.19-.12-2.2,1.92-2.8,1.53-.45,3.08-.82,4.57-1.44,2-.83,3.02-2.33,3.1-4.43,.06-1.84,.14-3.7-.08-5.51-.62-5.02,.18-9.88,1.44-14.69,1.35-5.13,3.43-10,5.98-14.62,4.33-7.85,8.32-15.86,11.8-24.12,1.38-3.27,3.43-5.83,6.62-7.61,4.47-2.49,6.81-6.62,7.85-11.52,.99-4.61,1.93-9.23,2.9-13.84,.13-.63,.32-1.24,.43-1.87,.15-.87,.68-1.17,1.51-1.21,4.31-.19,8.62-.45,12.93-.57,2.34-.06,2.98,.7,2.95,3.03-.04,3.15-.75,3.93-3.85,4.3-1.43,.17-2.86,.35-4.27,.62-1.84,.36-2.99,1.46-3.19,3.39-.11,1.03-.22,2.07-.23,3.1-.03,5.44,0,10.88-.03,16.32,0,2.34-.03,2.33-2.38,2.45-1.68,.09-3.35,.21-5.02,.33-2.25,.15-2.3,.16-2.34,2.34-.06,3.76-.06,7.52-.06,11.28,0,5.12,0,10.24,0,15.36,0,2.81-.02,2.82-2.74,2.83-2.4,.01-4.8-.02-7.19,.01-2.15,.03-2.28,.13-2.28,2.36,0,3.92-.24,7.84,.2,11.75,.03,.24,.01,.48,.02,.72,0,3.92-1.41,5.32-5.35,5.3-2.05-.01-2.09-.01-2.09,2.13-.02,6.16,0,12.32,0,18.48h0Z"/>
  <path d="M618.39,240.45c0-4.47,0-8.95,0-13.42,0-.8,0-1.6-.1-2.39-.4-2.98-2.07-4.73-5-5.36-1.5-.32-3.02-.27-4.53-.31-1.86-.05-1.95-.12-1.98-1.86-.04-2.88-.05-5.75,0-8.63,.03-1.8,.7-2.57,2.43-3.06,3.89-1.11,8.77,1.21,10.53,5.14,1.17,2.62,2.18,5.32,3.19,8.01,1.6,4.26,3.17,8.54,4.71,12.82,.55,1.52,1.21,2.95,2.22,4.22,2.07,2.61,2.9,5.62,2.95,8.93,.04,2.73-.3,5.42-.62,8.12-.27,2.28-1.72,3.73-4.08,4.04-2.53,.32-5.08,.49-7.63,.63-1.91,.1-2-.05-2.07-2,0-.08,0-.16,0-.24,0-4.87,0-9.75,0-14.62Z"/>
  <path d="M131.7,334.62c-5.11-.38-8.15-3.59-8.32-8.94-.12-3.75,.02-7.52-.17-11.26-.28-5.5-.76-10.99-1.16-16.48-.19-2.55-.42-5.09-.56-7.64-.08-1.4,.16-1.65,1.66-1.69,2.39-.05,4.79,.02,7.19-.02,1.25-.02,1.73,.56,1.66,1.75-.02,.4,0,.8,0,1.2,0,13.5,0,27.01,0,40.51,0,.86,.19,1.76-.29,2.57Z"/>
  <path d="M503.4,390.33c-1.2-1.58-2.65-1.67-4.04-1.91-.78-.14-1.59-.14-2.36-.32-3.2-.76-5.13-2.77-5.67-6.02-.38-2.29-.19-4.61-.18-6.92,0-.89,.45-1.3,1.32-1.3,3.58,0,7.17,0,10.75,0,1.03,0,1.39,.54,1.4,1.5,.05,3.26,.39,6.52-.3,9.76-.33,1.55-.55,3.13-.91,5.22Z"/>
  <path class="cls-4" d="M348.96,589.18c8.15,0,16.3,0,24.45,0,.72,0,1.44,.02,2.16-.02,1.73-.09,1.95-.25,1.98-1.96,.05-2.64,0-5.28-.03-7.91,0-.64-.08-1.28-.08-1.92,0-3.16,1.04-4.31,4.23-4.59,1.27-.11,2.56-.02,3.83-.11,2.98-.21,4-1.21,4.04-4.21,.06-4.96,0-9.91,0-14.87,0-.08-.01-.16-.02-.24-.16-4.61,.9-5.64,5.46-5.76,11.18-.28,22.35-.59,33.53-.97,4.45-.15,5.51-1.35,5.67-5.9,.09-2.56,.31-5.11,1.01-7.59,.19-.66,.23-1.47,1.16-1.63,1.07-.17,1.61,.45,2.05,1.29,1.21,2.3,1.93,4.73,2,7.34,.13,4.4-.16,8.79-.28,13.19-.03,1.23-.51,1.69-1.74,1.66-2.4-.06-4.79-.01-7.19-.01-10.79,0-21.58,0-32.36,0-.64,0-1.28-.02-1.92,.01-1.63,.08-1.76,.19-1.86,1.81-.05,.8-.02,1.6-.02,2.4,0,14.31,0,28.63,0,42.94,0,.72,0,1.44,0,2.16-.05,2.22-.05,2.25-2.18,2.55-2.29,.32-4.59,.59-6.89,.87-2.07,.25-2.12,.26-2.13,2.34-.02,6.24,.05,12.48-.03,18.71-.07,5.66,1,4.42-4.65,6.18-3.89,1.21-6.36,1.86-5.65,8.32,.11,1.03,.17,2.07,.22,3.11,.09,2.36-.01,2.47-2.29,2.51-.24,0-.48,0-.72,0-12.07,0-24.13,0-36.2,0-.32,0-.64,0-.96,0-1.86-.07-2.08-.25-1.98-2.11,.16-3.03,.39-6.06,.6-9.09,.02-.32,.11-.63,.13-.95,.12-1.86-.08-2.12-1.92-2.14-2.96-.04-5.91-.01-8.87-.02-.96,0-1.92,.03-2.88-.01-1.62-.06-1.73-.16-1.81-1.82-.09-2-.12-3.99-.15-5.99-.11-8.4,.37-16.78,.86-25.15,.16-2.71,.27-5.43,.42-8.14,.16-2.83,1.29-4.08,4.16-4.21,2.87-.13,5.75-.06,8.63-.06,6.07,0,12.15,0,18.22,0Z"/>
  <path class="cls-4" d="M373.75,528.46c0,8.07,0,16.13,0,24.2,0,.64-.02,1.28-.02,1.92,0,.88-.39,1.33-1.29,1.32-1.28,0-2.56,.06-3.83,0-2.47-.12-4.93-.27-7.39-.48-2.42-.2-3.91-1.67-3.7-4.09,.47-5.33,.09-10.68,.65-16.01,.26-2.45,.22-4.94,.22-7.42,0-2.24,.47-4.1,2.81-5.03,1.11-.44,1.26-1.57,1.47-2.58,.68-3.23,.37-6.52,.5-9.78,.12-2.79-.1-5.59-.1-8.38,0-2,.1-2.09,2.04-1.87,2.45,.27,4.9,.65,7.35,.94,.88,.1,1.28,.52,1.27,1.39,0,.64,.02,1.28,.02,1.92,0,7.99,0,15.97,0,23.96Z"/>
  <path class="cls-4" d="M345.45,565.59c0-4.08-.02-8.16,0-12.24,.01-1.98,.5-2.36,2.44-2.15,3.08,.33,4.99,1.99,6.27,4.83,3.65,8.1,5.47,16.66,6.93,25.34,.33,1.98,.24,2.25-1.67,2.72-3.19,.78-6.45,1.17-9.74,.95-2.12-.15-3.33-1.25-3.74-3.41-.31-1.64-.53-3.31-.51-5,.03-3.68,0-7.36,.01-11.04Z"/>
  <path class="cls-4" d="M280.48,523.11c-3.75,0-7.49,.03-11.24,0-1.94-.02-2.02-.11-2.06-2.04-.06-3.03-.15-6.06,.07-9.09,.17-2.34,1.31-3.64,3.54-3.68,6.29-.1,12.59-.2,18.87,.37,2.53,.23,3.63,1.33,4.05,3.89,.5,3.01,.2,6.05,.21,9.07,0,1.31-.9,1.49-1.96,1.49-3.83-.02-7.65,0-11.48,0Z"/>
  <path class="cls-4" d="M300.77,560.07c-3.91,0-7.81,.02-11.72-.01-1.79-.02-1.94-.15-1.97-1.9-.05-3.19-.05-6.38,0-9.57,.03-1.9,.19-2.07,2.12-1.87,4.91,.51,9.81,1.09,14.72,1.68,2.45,.29,4.89,.73,7.34,.96,1.52,.14,2.24,1,2.71,2.3,.87,2.4,.71,4.87,.55,7.34-.07,1.14-1,1.07-1.79,1.07-3.51,.01-7.02,0-10.52,.01-.48,0-.96,0-1.44,0h0Z"/>
  <path class="cls-5" d="M303.52,543.46c-3.39-4.05-3.38-17.68-.02-22.14,.07,.01,.15,.02,.22,.05,.07,.03,.17,.08,.17,.13,.33,7.01,.09,14.02,.13,21.04,0,.3,.01,.65-.5,.93Z"/>
  <path class="cls-1" d="M309.33,513.43c-1.65,2.53-4,3.36-6.65,3.49-2.4,.11-5.01-2.6-4.89-4.94,.02-.36,.16-.68,.5-.69,3.09-.09,6.22-.68,9.2,.57,.7,.29,1.44,.7,1.84,1.57Z"/>
  <path class="cls-1" d="M261.91,529.18c-1.31,.04-2.21-.41-2.65-1.49-.48-1.17-.94-2.37-1.27-3.59-.29-1.1,1.12-2.25,2.07-1.62,1.34,.89,2.82,1.01,4.27,1.35,1.2,.29,1.88,1.03,1.96,2.36,.09,1.37-.56,2.03-1.76,2.43-.92,.31-1.85,.46-2.63,.55Z"/>
  <path d="M364.61,618.96c0,5.75,0,11.51,0,17.26,0,.72-.05,1.44-.15,2.15-.21,1.43-1.03,2.31-2.49,2.52-.79,.11-1.59,.2-2.38,.2-7.51,.02-15.02,0-22.53,0-.24,0-.48,0-.72,0-1.65-.1-1.85-.22-1.87-1.79-.04-2.96,.02-5.92,.04-8.87,0-.32,.08-.64,.08-.95,0-3.8-1.16-5.02-4.93-5.17-3.54-.14-4.66-1.13-4.59-4.66,.13-6-.08-11.99-.25-17.98-.01-.48-.02-.96,.03-1.44,.22-2.03,1.2-3.01,3.26-3.1,1.75-.07,3.51,.02,5.27,.02,9.03,0,18.06,0,27.09,0,.72,0,1.45-.03,2.15,.06,1.74,.22,2.59,1.06,2.69,2.81,.09,1.51,.03,3.04-.01,4.56-.13,4.79-.29,9.59-.43,14.38-.09,0-.18,0-.27,0Z"/>
</svg>