<?xml version="1.0" encoding="UTF-8"?>
<svg id="Layer_1" data-name="Layer 1" xmlns="http://www.w3.org/2000/svg" viewBox="0 0 240.24 217.68" background-color = "transparent">
  <defs>
    <style>
      .cls-1 {
        fill: #1c345a;
      }
    </style>
  </defs>
  <path class="cls-1" d="M.24,202.82c.44-3.58,.57-7.22,1.37-10.72,3.34-14.75,6.16-29.67,10.51-44.12,5.82-19.31,13.64-37.95,24.3-55.19,14.13-22.85,28.68-45.5,47.48-64.88,8.49-8.76,18.36-16.19,27.71-24.1,1.51-1.27,3.51-2.13,5.43-2.69,1.19-.35,3.07-.22,3.86,.53,.61,.58,.38,2.62-.14,3.7-6.52,13.65-12.79,27.43-19.87,40.78-5.74,10.82-12.08,21.38-18.92,31.53-6.55,9.73-14.03,18.86-21.23,28.15-5.32,6.86-10.84,13.57-16.31,20.31-.38,.46-1.07,.67-1.62,1,.24-.58,.37-1.24,.74-1.71,7.92-9.95,16-19.77,23.77-29.83,17.57-22.75,32.88-46.91,44.84-73.1,2.66-5.83,5.05-11.78,7.51-17.71,.21-.52,.16-1.63-.11-1.76-.62-.3-1.51-.36-2.18-.16-9.79,2.89-16.48,10.1-23.83,16.59-14.28,12.62-25.76,27.62-36.58,43.01-15.18,21.6-29.66,43.79-38.06,69.12-4.59,13.85-8.44,27.97-12.05,42.11-2.23,8.72-3.79,17.66-4.91,26.59-1.33,10.65,7.82,17.96,18.12,14.51,11.58-3.88,21.3-10.92,29.17-20.14,9.04-10.6,18.04-21.29,26.2-32.56,7.85-10.84,14.54-22.52,21.93-33.71,.99-1.5,3.08-2.28,4.66-3.39-.43,1.7-.45,3.67-1.37,5.04-3.63,5.39-7.73,10.46-11.31,15.88-6.74,10.2-15.46,19.33-18.02,31.88-.29,1.41,.14,2.97,.23,4.46,1.4-.64,3.21-.93,4.13-1.98,5.2-5.94,10.16-12.09,15.26-18.12,1.34-1.58,2.84-3.03,4.35-4.45,.28-.27,1.1-.32,1.41-.1,.27,.19,.33,.93,.23,1.37-.51,2.4-1.12,4.78-1.65,7.18-.04,.2,.26,.48,.4,.72,.26-.26,.61-.48,.76-.79,1.9-3.99,2.88-8.9,5.85-11.79,5.86-5.7,7.26-13.24,10.17-20.12,4.71-11.14,8.49-22.67,13.17-33.83,4.18-9.98,9.02-19.69,13.66-29.48,.32-.68,1.36-1.03,2.07-1.53-.01,.93,.26,1.99-.07,2.78-7.31,17.38-15.42,34.46-21.84,52.16-5.8,16-9.81,32.65-14.56,49.03-2.92,10.06-5.8,20.13-8.54,30.24-.49,1.79-.09,3.81-.3,5.7-.09,.79-.73,1.52-1.12,2.27-.47-.84-1.48-1.78-1.33-2.49,1.04-4.95,2.19-9.88,3.54-14.75,4.71-16.93,9.51-33.83,14.25-50.75,.12-.44-.12-.98-.19-1.47-.4,.45-.99,.83-1.17,1.36-2.45,6.95-4.8,13.94-7.3,20.87-.28,.79-1.29,1.32-1.96,1.97-.09-.81-.18-1.61-.26-2.42-.06-.56-.11-1.13-.16-1.69-.35,.49-.79,.95-1.03,1.49-1.84,4.18-3.57,8.42-5.52,12.55-.29,.62-1.59,.77-2.42,1.13-.2-.77-.7-1.61-.53-2.29,.92-3.88,2.02-7.71,3.01-11.57,.09-.36-.08-.78-.13-1.17-.34,.22-.76,.36-1.01,.66-5.41,6.39-10.71,12.89-16.28,19.15-1.18,1.33-3.24,2.12-5.03,2.54-.58,.14-2.38-1.72-2.32-2.57,.18-2.68,1.01-5.31,1.52-7.98,.06-.33-.25-.72-.39-1.09-.51,.3-1.15,.49-1.52,.91-8.97,10.25-17.27,21.21-27.11,30.54-5.83,5.53-14.09,8.49-21.25,12.63-.19,.11-.28,.4-.41,.61h-6.48c-.34-.21-.66-.55-1.03-.62-5.18-.91-9.45-3.05-11.43-8.33-.26-.69-.5-1.39-.74-2.08,0-1.28,0-2.56,0-3.84Z"/>
  <path class="cls-1" d="M240.24,182.44c-1,1.34-2.02,2.65-2.98,4.02-3.88,5.54-7.75,11.1-12.03,16.38,3.53-5.65,7.09-11.28,10.55-16.97,.79-1.3,1.49-2.76,1.83-4.23,.66-2.83-1.37-3.34-3.44-3.14-8.73,.81-17.32,.6-25.48-3.11-1.26-.57-2.58-1.2-3.59-2.11-2.61-2.35-3.66-.74-4.72,1.54-1.93,4.18-3.87,8.35-5.96,12.45-2.04,4-4.53,4.23-7.21,.77-1.47-1.89-2.56-1.6-3.49,.41-1.99,4.29-3.85,8.65-6.01,12.85-.51,.99-2.02,1.47-3.07,2.19-.47-1.06-1.33-2.12-1.33-3.18,0-1.89,.56-3.77,.79-5.67,.04-.34-.37-.74-.57-1.12-.41,.3-.98,.51-1.21,.91-1.09,1.89-1.97,3.93-3.19,5.73-.47,.7-1.67,.91-2.53,1.34-.39-.99-1.05-1.96-1.1-2.96-.07-1.45,.35-2.92,.46-4.39,.03-.43-.28-.89-.43-1.34-.41,.31-1.03,.54-1.2,.96-.94,2.19-1.63,4.5-2.69,6.63-.43,.85-1.58,1.35-2.4,2.01-.65-.92-1.48-1.77-1.92-2.79-1.29-2.96-2.36-6.02-3.74-8.94-.15-.32-2.05-.34-2.57,.13-1.31,1.19-2.09,3.02-3.49,4.05-.94,.69-2.56,.52-3.88,.62-.45,.04-1.08-.52-1.36-.35-.32,.19-.34,.88-.49,1.35-.34,1.08-.66,2.16-1.06,3.22-.01,.04-1.08-.15-1.1-.31-.18-1.2-.47-2.48-.25-3.64,1.85-9.62,3.91-19.2,5.61-28.84,.31-1.75-.81-3.74-1.17-5.64-.08-.43,.29-.95,.45-1.42,.59,.22,1.69,.41,1.71,.68,.27,3.83,.76,7.69,.45,11.49-.36,4.31-1.5,8.56-2.2,12.85-.04,.24,.75,.88,1.14,.87,1.99-.02,3.98-.16,5.96-.35,.6-.06,1.48-.21,1.73-.62,7.62-12.84,12.96-26.55,15.19-41.34,.59-3.92,.59-8.12-.14-12.01-1.55-8.33-8.32-10.23-16.54-5.16-9.07,5.6-14.02,14.47-18.46,23.56-3.27,6.69-5.89,13.74-8.22,20.82-.8,2.45,.18,5.47,.32,8.23,.03,.65-.02,1.31-.04,1.96-.52-.43-1.5-.87-1.5-1.3,.05-4.55-.81-9.47,.61-13.58,4.47-12.9,10.08-25.47,19.58-35.53,3.71-3.93,8.95-6.68,13.93-9.06,4.58-2.18,11.2,3.09,12.44,9.15,1.62,7.93-.43,15.49-2.13,23.14-2.55,11.49-7.89,21.72-13.67,31.8-.33,.58-.09,1.72,.26,2.42,1.4,2.77,2.94,5.48,4.46,8.19,.17,.29,.65,.72,.8,.66,.46-.2,1-.53,1.22-.95,1.16-2.26,2.13-4.63,3.41-6.81,.4-.68,1.6-1.25,2.4-1.21,.5,.02,1.26,1.25,1.34,2,.15,1.49-.12,3.02-.13,4.53,0,.53,.25,1.07,.38,1.6,.58-.42,1.43-.71,1.71-1.28,.96-1.95,1.57-4.08,2.63-5.97,.56-1,1.79-1.61,2.72-2.4,.27,.96,.79,1.92,.77,2.87-.07,2.47-.4,4.93-.56,7.4-.03,.45,.26,.91,.4,1.37,.43-.33,1.06-.57,1.27-1.01,1.66-3.52,3.2-7.1,4.87-10.61,1.54-3.25,4.04-3.48,6.22-.69,2.29,2.91,3.81,.91,4.95-1.03,2.53-4.32,4.88-8.74,7.22-13.16,.38-.72,.74-1.87,.43-2.48-3.16-6.24-1.65-12.6,.2-18.57,2.35-7.6,5.75-14.89,8.8-22.26,.3-.71,1.37-1.11,2.08-1.65,.08,.77,.35,1.57,.23,2.31-1.64,9.72-3.24,19.45-5.07,29.14-.47,2.47-1.66,4.81-2.58,7.18-2.02,5.2-1.41,6.69,3.85,8.91,7.53,3.18,15.4,3.27,23.42,2.84,2.66-.14,5.41,1.34,8.11,2.08v3.6Zm-38.65-21.63c0,1.08-.1,2.17,.05,3.23,.07,.48,.6,.92,1.02,1.28,.07,.06,.73-.28,.85-.56,4.41-10.17,6.29-20.92,7.16-31.89,.02-.32-.27-.66-.41-.98-.31,.24-.72,.42-.91,.73-.31,.5-.41,1.12-.7,1.64-4.57,8.26-6.29,17.29-7.04,26.55Zm-55.68,33.54c1.64-2.26,2.9-3.99,4.16-5.73-.51-.35-1.37-1.09-1.47-1-1.49,1.4-2.92,2.87-4.23,4.44-.12,.15,.72,1.09,1.54,2.29Z"/>
</svg>