<?xml version="1.0" encoding="UTF-8"?>
<svg id="Layer_1" data-name="Layer 1" xmlns="http://www.w3.org/2000/svg" viewBox="0 0 1521.6 1459.2">
  <defs>
    <style>
      .cls-1 {
        fill: #333;
      }
    </style>
  </defs>
  <path class="cls-1" d="M50.32,1289.08c4.69-33.59,9.95-78.78,17.45-123.61,30.36-181.58,85.38-355.44,172.96-517.51,56.54-104.63,120.46-205.15,196.34-297.37,42.32-51.44,83.23-104.18,127.73-153.66,50.52-56.17,105.6-108.06,171.48-146.47,13.25-7.73,29.25-12.26,44.54-14.56,15.83-2.38,20.67,6.49,14.25,21.55-5,11.72-9.81,23.56-15.5,34.94-38.54,77.05-75.78,154.8-116.3,230.8-92.07,172.72-204.59,331.32-336.43,476.02-10.46,11.47-24.49,20.6-38.48,27.54-6.56,3.25-17-1.2-25.64-2.48-.8-.12-1.26-2.55-1.87-3.91,1.07-.01,2.28-.37,3.18,.02,24.06,10.49,39.44-5.49,52.76-20.02,94.13-102.62,178.37-212.9,253.13-330.44,77.94-122.53,142.68-251.97,202.39-384.08,3.93-8.7,7.19-17.71,10.44-26.7,3.3-9.15-1.15-13.95-9.74-11.67-11.01,2.92-22.4,6.55-31.93,12.57-100.27,63.44-179.29,149.24-252.57,241.07-69.03,86.51-133.6,176.04-191.37,270.6-90.9,148.79-155.13,307.99-194.41,477.75-18.38,79.45-32.23,159.51-40.96,240.49-1.31,12.12-.44,24.84,1.65,36.89,5.38,31.05,39.46,52.15,75.33,47.33,33.48-4.49,64.28-16.22,90.91-37.16,59.78-47.02,115.68-98.15,163.23-157.85,26.36-33.09,54.07-65.23,78.57-99.65,24.69-34.68,45.73-71.94,69.14-107.56,33.3-50.66,67.04-101.04,101.29-151.05,5.88-8.58,15.04-15.05,23.22-21.84,1.8-1.5,6.95-1.4,8.66,.11,1.69,1.5,2.33,6.46,1.12,8.6-7.54,13.31-15.3,26.54-23.81,39.25-10.41,15.55-21.76,30.47-32.45,45.83-19.33,27.78-38.65,55.57-57.65,83.57-25.92,38.21-55.56,74.35-68.57,119.92-3.61,12.64-7.17,25.35-9.61,38.25-.86,4.57,.49,10.68,3.21,14.29,1.2,1.59,9.1-.13,12.63-2.41,7.25-4.68,14.64-9.87,20.14-16.4,28.56-33.85,56.42-68.3,84.82-102.29,7.66-9.17,16.08-17.77,24.78-25.97,2.71-2.55,7.49-2.9,11.33-4.25,.64,3.92,2.41,8.06,1.73,11.73-2.49,13.25-5.89,26.32-8.71,39.51-.43,2.03,.38,4.32,.62,6.5,1.8-1.74,4.32-3.15,5.29-5.27,8.36-18.11,16.25-36.44,24.7-54.5,4.91-10.49,7.86-22.91,22.84-24.71,2.46-.3,5.14-4.8,6.44-7.9,15.29-36.37,26.6-75.02,46.32-108.76,28.41-48.6,35-104.08,56.63-154.46,19.18-44.67,38.39-89.33,58.29-133.67,14.85-33.1,30.54-65.84,46.62-98.36,2.49-5.04,9.08-8.04,13.77-11.99-.12,6,1.84,13.09-.65,17.84-52.2,99.47-95.25,202.97-130.33,309.43-28.19,85.53-50.73,172.91-75.79,259.47-22.62,78.12-45.61,156.14-67.52,234.45-3.45,12.33-1.43,26.1-3.24,39.02-.69,4.93-5.02,9.34-7.7,13.99-2.81-5.03-7.76-9.97-7.96-15.1-.35-8.57,1.54-17.48,3.86-25.86,34.02-122.59,68.3-245.1,102.32-367.69,1.55-5.6,1.14-11.74,1.65-17.63-2.75,5.12-6.24,9.99-8.14,15.41-13.8,39.39-27.25,78.91-40.94,118.34-1.16,3.36-2.52,7.24-5.05,9.38-2.87,2.43-7.17,3.17-10.85,4.65-.69-3.62-1.76-7.22-1.93-10.87-.1-2.25,1.61-4.54,1.71-6.85,.09-2.05-.93-4.16-1.46-6.24-1.58,1.5-3.89,2.71-4.61,4.55-6.09,15.58-11.46,31.46-17.91,46.89-5.06,12.09-10.58,24.16-17.56,35.17-2.27,3.57-9.82,3.79-14.96,5.55-1.19-4.78-4.24-9.99-3.24-14.26,5.19-22.13,11.52-43.99,17.16-66.01,.87-3.41,.19-7.22,.22-10.85-2.64,2.14-5.7,3.93-7.86,6.49-32.46,38.42-64.1,77.56-97.69,114.97-7.63,8.49-21.43,13.04-33.22,15.73-11.39,2.6-15.55-3.95-13.16-15.67,3.11-15.25,6.44-30.45,9.32-45.74,.6-3.18-.39-6.66-.65-10-2.65,1.93-5.85,3.41-7.87,5.86-35.3,42.81-68.08,88.01-106.3,128.02-40.13,42-84.74,79.86-128.78,117.94-25.21,21.79-56.54,32.66-89.31,38.12-57.36,9.57-95.53-23.98-95.52-95.09Z"/>
  <path class="cls-1" d="M1007.87,848.18c-2.25-20.07-2.5-38.25-6.59-55.51-8.84-37.25-40.54-52.58-75.53-37.75-38.99,16.53-68.61,43.69-92.33,78.78-37.34,55.26-66.18,114.51-88.89,177-9.64,26.54-13.22,53.31-4.55,80.92,.95,3.01-.19,6.67-.36,10.03-3.14-1.79-8.2-2.93-9.08-5.5-3.3-9.59-8.44-20.12-7.05-29.44,3.77-25.44,7.75-51.47,16.62-75.43,23.34-63.03,53.64-122.83,93.88-177.04,24.69-33.26,55.13-59.59,94.52-74.6,25.98-9.9,50.57-4.04,68.97,17.35,13.54,15.75,19.77,34.21,21.11,54.75,2.48,37.88-5.22,74.29-12.8,111.15-15.18,73.85-47.6,140.08-85.13,204.33-5.5,9.41-3.38,14.65,2.74,22.93,9.44,12.78,15.86,27.8,23.62,41.84,1.57,2.84,3.42,5.53,5.14,8.29,2.78-2.39,6.57-4.25,8.17-7.27,6.87-13,12.27-26.86,20-39.29,2.8-4.49,10.58-7.59,16.23-7.8,2.47-.09,6.99,8.45,7.54,13.41,.91,8.19-.93,16.66-1.03,25.01-.04,3.5,1.4,7.02,2.17,10.54,3.44-2.32,8.33-3.87,10.04-7.1,5.56-10.49,10.01-21.58,14.77-32.49,1.27-2.91,1.24-7.01,3.33-8.8,4.79-4.1,10.51-7.11,15.85-10.56,1.72,5.11,5.02,10.26,4.87,15.31-.41,13.93-2.55,27.8-3.37,41.72-.27,4.62,1.43,9.35,2.23,14.02,3.09-3.61,7.14-6.76,9.12-10.9,9.78-20.45,18.4-41.46,28.6-61.68,9.57-18.97,25.14-19.72,38.15-2.86,8.92,11.55,18.25,12.07,25.55-.36,17.15-29.2,33.43-58.93,49.52-88.73,2.21-4.09,3.46-10.94,1.55-14.65-14.47-27.98-9.34-56.91-4.74-85.6,3.34-20.82,8.59-41.33,13.09-61.95,8.39-38.5,30.76-70.57,48.61-104.69,1.88-3.59,8-4.96,12.15-7.36,.45,4.35,1.66,8.78,1.23,13.05-2.95,28.88-5.11,57.91-9.68,86.56-8.3,52.08-21.39,103.01-43.05,151.32-5.19,11.58-2.67,19.15,6.94,26.78,28.64,22.73,62.83,28.8,97.47,31.78,21.72,1.87,43.82-1.12,65.71-.61,12.56,.29,25.59,1.55,37.46,5.34,16.83,5.36,20.55,18.09,10.83,32.99-16.12,24.71-32.81,49.05-49.42,73.44-8.08,11.87-16.42,23.57-24.89,35.16-1.49,2.04-4.2,3.19-6.35,4.74,.81-2.28,1.23-4.8,2.48-6.8,15.68-25.01,31.89-49.7,47.06-75.02,7.12-11.89,12.95-24.69,18.13-37.58,4.9-12.19-.66-20.17-13.97-21.13-7.52-.54-15.22-.3-22.72,.59-37.38,4.42-74.48,1.82-110.15-9.21-20.23-6.25-39.13-17.4-57.84-27.76-8.45-4.68-13.03-4.01-17.03,4.17-11.52,23.64-22.97,47.32-34.52,70.95-3.32,6.79-6.4,13.77-10.4,20.16-11.39,18.15-23.49,19.24-38.66,3.94-16.12-16.26-16.89-16.65-27.44,4.22-11.47,22.71-21.26,46.26-31.95,69.37-2.15,4.64-3.98,10.65-7.81,12.98-4.41,2.68-11.78,4.02-16.16,2.08-3.51-1.55-6.47-8.99-6.17-13.59,.79-12.26,3.67-24.38,5.21-36.61,.32-2.56-1.52-5.39-2.36-8.1-2.45,1.46-5.93,2.33-7.17,4.49-6.37,11.04-11.23,23.08-18.56,33.39-3.49,4.91-11.29,6.76-17.14,10-2.24-5.93-5.96-11.76-6.36-17.82-.54-8.21,1.87-16.58,2.17-24.91,.12-3.29-2.03-6.66-3.14-10-2.62,2.69-6.26,4.93-7.66,8.15-4.29,9.85-7.35,20.22-11.58,30.09-3.66,8.52-5.9,20.15-18.05,19.4-13.11-.81-12.28-13.12-13.49-22.1-2.45-18.25-7.77-34.75-20.85-48.51-6.55-6.9-11.29-7.71-17.18,.14-6.22,8.3-12.94,16.23-19.32,24.42-7.22,9.27-15.6,12.19-25.81,4.88-8.81-6.31-11.11-1.92-11.22,6.51,0,.4,.07,.82-.04,1.19-1.73,5.82-3.25,11.73-5.56,17.31-.27,.65-6.96-.02-7.16-.88-1.52-6.61-4.13-13.85-2.77-20.1,7.36-33.84,17.21-67.19,23.4-101.22,5.67-31.19,8.1-63,11.13-94.62,.51-5.36-3.58-11.04-4.78-16.74-.7-3.33,.1-6.97,.22-10.47,3.8,.92,9.44,.63,11.02,3.02,3.12,4.72,4.62,10.81,5.7,16.55,6.56,34.91-6.41,67.82-10.85,101.61-1.35,10.26-3.37,20.44-5.29,30.62-1.28,6.76,.89,8,7.66,7.15,11.97-1.51,24.25-.78,36.15-2.62,4.73-.73,10.48-4.85,12.9-9.07,36.74-63.92,66.66-130.63,81.22-203.42,4.75-23.74,9.39-47.5,13.76-69.64Zm200.36,131.22c0,4.39-.79,8.97,.2,13.12,1.18,4.96,3.88,9.56,5.92,14.31,2.89-3.61,6.73-6.8,8.53-10.89,25.51-58.04,33.9-120.06,41.58-182.19,.4-3.21-1.2-6.67-1.86-10.02-2.68,2.63-6.09,4.82-7.92,7.94-30.31,51.78-40.93,109.06-46.44,167.72Zm-321.05,165.38c-13.18-.2-27.12,11.04-29.02,21.29-.73,3.95,1.85,8.52,2.93,12.8,4.55-1.19,10.4-1.01,13.37-3.85,5.94-5.68,11.03-12.61,14.95-19.85,1.41-2.61-1.53-7.58-2.23-10.39Z"/>
</svg>